<svg aria-hidden="true" style="position: absolute; width: 0; height: 0; overflow: hidden;" version="1.1" xmlns="http://www.w3.org/2000/svg" xmlns:xlink="http://www.w3.org/1999/xlink">
    <defs>
        <symbol id="icon-arrow-botton" viewBox="0 0 32 32">
            <path fill="none" stroke="#fafafa" style="stroke: var(--color1, #fafafa)" stroke-linejoin="miter" stroke-linecap="butt" stroke-miterlimit="4" stroke-width="3.2" d="M24 12l-8 8-8-8"></path>
        </symbol>
        <symbol id="icon-user" viewBox="0 0 32 32">
            <path stroke-linejoin="round" stroke-linecap="round" stroke-miterlimit="4" stroke-width="2.6667" d="M26.667 28c0-1.861 0-2.791-0.229-3.548-0.529-1.708-1.848-3.026-3.518-3.546l-0.038-0.010c-0.757-0.229-1.687-0.229-3.548-0.229h-6.667c-1.861 0-2.791 0-3.548 0.229-1.708 0.529-3.027 1.848-3.546 3.518l-0.010 0.038c-0.229 0.757-0.229 1.687-0.229 3.548M16 16c3.314 0 6-2.686 6-6s-2.686-6-6-6v0c-3.314 0-6 2.686-6 6s2.686 6 6 6v0z"></path>
        </symbol>
        <symbol id="icon-message" viewBox="0 0 32 32">
            <path stroke-linejoin="round" stroke-linecap="round" stroke-miterlimit="4" stroke-width="2.6667" d="M8.125 14.972c-0.080-0.49-0.125-1.056-0.125-1.631 0-0.003 0-0.005 0-0.008v0c0-5.891 4.807-10.667 10.737-10.667 5.929 0 10.736 4.776 10.736 10.667 0 1.331-0.245 2.605-0.693 3.78-0.093 0.243-0.14 0.365-0.16 0.46-0.019 0.077-0.031 0.166-0.032 0.258v0.001c-0.003 0.097 0.011 0.204 0.037 0.419l0.537 4.36c0.057 0.473 0.087 0.709 0.008 0.88-0.070 0.151-0.19 0.269-0.338 0.334l-0.004 0.002c-0.173 0.073-0.408 0.040-0.88-0.029l-4.245-0.623c-0.223-0.032-0.333-0.049-0.435-0.048-0.003-0-0.006-0-0.009-0-0.091 0-0.18 0.010-0.266 0.030l0.008-0.002c-0.099 0.021-0.225 0.068-0.477 0.163-1.128 0.432-2.433 0.683-3.796 0.683-0.575 0-1.14-0.045-1.692-0.13l0.061 0.008M10.176 29.333c3.953 0 7.157-3.283 7.157-7.333s-3.204-7.333-7.157-7.333c-3.953 0-7.159 3.283-7.159 7.333 0 0.813 0.129 1.597 0.369 2.329 0.1 0.309 0.151 0.464 0.168 0.569 0.017 0.111 0.020 0.173 0.013 0.284-0.007 0.107-0.033 0.227-0.087 0.468l-0.815 3.683 3.993-0.545c0.217-0.029 0.327-0.045 0.421-0.044 0.101 0 0.153 0.007 0.253 0.027 0.093 0.017 0.231 0.067 0.508 0.164 0.693 0.253 1.493 0.399 2.328 0.399 0.002 0 0.004 0 0.006 0h-0z"></path>
        </symbol>
        <symbol id="icon-brush" viewBox="0 0 32 32">
            <path stroke-linejoin="round" stroke-linecap="round" stroke-miterlimit="4" stroke-width="2.6667" d="M17.037 20l-5.037-5.037M2.667 29.333c2.667 0 6.144 0.456 7.967-1.367 0.845-0.845 1.367-2.011 1.367-3.3 0-2.577-2.089-4.667-4.667-4.667-1.289 0-2.455 0.522-3.3 1.367v0c-1.823 1.823 0 5.3-1.367 7.967z"></path>
            <path stroke-linejoin="round" stroke-linecap="round" stroke-miterlimit="4" stroke-width="2.6667" d="M10.667 21.333c-0.655-0.655-0.983-0.983-1.168-1.325-0.202-0.366-0.32-0.803-0.32-1.267 0-0.5 0.138-0.969 0.378-1.369l-0.007 0.012c0.197-0.335 0.537-0.651 1.217-1.28l13.157-12.183c0.526-0.502 1.24-0.811 2.027-0.811 1.623 0 2.939 1.316 2.939 2.939 0 0.786-0.309 1.5-0.812 2.028l0.001-0.001-12.183 13.157c-0.631 0.68-0.945 1.019-1.28 1.217-0.388 0.233-0.856 0.371-1.357 0.371-0.464 0-0.901-0.119-1.281-0.327l0.014 0.007c-0.343-0.185-0.671-0.513-1.325-1.168z"></path>
        </symbol>
        <symbol id="icon-hourglass" viewBox="0 0 25 32">
            <path stroke-linejoin="round" stroke-linecap="round" stroke-miterlimit="4" stroke-width="2.0645" d="M18.749 2.065h-12.724c-0.477 0-0.864 0.387-0.864 0.864v0c0 0 0 0 0 0 0 2.864 1.161 5.458 3.038 7.335l1.259 1.259c0.124 0.124 0.187 0.187 0.231 0.248 0.128 0.17 0.205 0.384 0.205 0.617s-0.077 0.447-0.206 0.619l0.002-0.003c-0.074 0.090-0.149 0.171-0.23 0.246l-0.001 0.001-1.259 1.258c-1.877 1.877-3.038 4.471-3.038 7.335 0 0 0 0 0 0v0c0 0.477 0.387 0.864 0.864 0.864h12.724c0.477 0 0.864-0.387 0.864-0.864v0c0-0 0-0 0-0 0-2.864-1.161-5.458-3.038-7.335l-1.259-1.259c-0.124-0.124-0.187-0.187-0.231-0.248-0.128-0.17-0.205-0.384-0.205-0.617s0.077-0.447 0.206-0.619l-0.002 0.003c0.044-0.060 0.106-0.122 0.231-0.248l1.259-1.258c1.877-1.877 3.038-4.471 3.038-7.335 0-0 0-0 0-0v0c0-0.477-0.387-0.864-0.864-0.864v0z"></path>
        </symbol>
        <symbol id="icon-arrow-left" viewBox="0 0 32 32">
            <path stroke-linecap="round" stroke-linejoin="round" stroke-width="2" d="M26.667 16H5.334M13.333 24l-8-8 8-8" />
        </symbol>
        <symbol id="icon-arrow" viewBox="0 0 32 32">
            <path d="M26.667 16h-21.333"></path>
            <path d="M13.333 24l-8-8 8-8"></path>
        </symbol>
        <symbol id="icon-arrow-left2" viewBox="0 0 32 32">
            <path stroke-linejoin="round" stroke-linecap="round" stroke-miterlimit="4" stroke-width="2.0645" d="M12.586 27.414l-10-10c-0.781-0.781-0.781-2.047 0-2.828l10-10c0.781-0.781 2.047-0.781 2.828 0s0.781 2.047 0 2.828l-6.586 6.586h19.172c1.105 0 2 0.895 2 2s-0.895 2-2 2h-19.172l6.586 6.586c0.39 0.39 0.586 0.902 0.586 1.414s-0.195 1.024-0.586 1.414c-0.781 0.781-2.047 0.781-2.828 0z"></path>
        </symbol>
        <!-- <symbol id="icon-arrow-narrow-right" viewBox="0 0 32 32">
            <path stroke-linejoin="round" stroke-linecap="round" stroke-miterlimit="4" stroke-width="2.6667" d="M5.333 16h21.333"></path>
            <path stroke-linejoin="round" stroke-linecap="round" stroke-miterlimit="4" stroke-width="2.6667" d="M18.667 8l8 8-8 8"></path>
            </symbol> -->
    </defs>
</svg>